<svg width="22" height="15" viewBox="0 0 22 15" fill="none" xmlns="http://www.w3.org/2000/svg">
<path d="M0 0.5C0 0.223858 0.223858 0 0.5 0H21.5C21.7761 0 22 0.223858 22 0.5C22 0.776142 21.7761 1 21.5 1H0.5C0.223858 1 0 0.776142 0 0.5Z" fill="#A6A6A6"/>
<path d="M0 7.5C0 7.22386 0.223858 7 0.5 7H21.5C21.7761 7 22 7.22386 22 7.5C22 7.77614 21.7761 8 21.5 8H0.5C0.223858 8 0 7.77614 0 7.5Z" fill="#A6A6A6"/>
<path d="M0.5 14C0.223858 14 0 14.2239 0 14.5C0 14.7761 0.223858 15 0.5 15H21.5C21.7761 15 22 14.7761 22 14.5C22 14.2239 21.7761 14 21.5 14H0.5Z" fill="#A6A6A6"/>
</svg>
