<svg width="17" height="17" viewBox="0 0 17 17" fill="none" xmlns="http://www.w3.org/2000/svg">
<path d="M15.5 15.5L15.8536 15.1464L15.5 15.5ZM12.5 12.5L12.1464 12.1464L11.7929 12.5L12.1464 12.8536L12.5 12.5ZM16.2071 15.5L15.8536 15.1464L15.8536 15.1464L16.2071 15.5ZM16.2071 14.7929L15.8536 15.1464L16.2071 14.7929ZM13.2071 11.7929L13.5607 11.4393L13.2071 11.0858L12.8536 11.4393L13.2071 11.7929ZM14 7.5C14 11.0899 11.0899 14 7.5 14V15C11.6421 15 15 11.6421 15 7.5H14ZM7.5 1C11.0899 1 14 3.91015 14 7.5H15C15 3.35786 11.6421 0 7.5 0V1ZM1 7.5C1 3.91015 3.91015 1 7.5 1V0C3.35786 0 0 3.35786 0 7.5H1ZM7.5 14C3.91015 14 1 11.0899 1 7.5H0C0 11.6421 3.35786 15 7.5 15V14ZM15.8536 15.1464L12.8536 12.1464L12.1464 12.8536L15.1464 15.8536L15.8536 15.1464ZM15.8536 15.1464L15.8536 15.1464L15.1464 15.8536C15.537 16.2441 16.1701 16.2441 16.5607 15.8536L15.8536 15.1464ZM15.8536 15.1464L15.8536 15.1464L16.5607 15.8536C16.9512 15.463 16.9512 14.8299 16.5607 14.4393L15.8536 15.1464ZM12.8536 12.1464L15.8536 15.1464L16.5607 14.4393L13.5607 11.4393L12.8536 12.1464ZM12.8536 12.8536L13.5607 12.1464L12.8536 11.4393L12.1464 12.1464L12.8536 12.8536Z" fill="#A6A6A6"/>
</svg>
